<?xml version="1.0" encoding="utf-8"?>
<!-- Generator: Adobe Illustrator 18.0.0, SVG Export Plug-In . SVG Version: 6.00 Build 0)  -->
<!DOCTYPE svg PUBLIC "-//W3C//DTD SVG 1.1//EN" "http://www.w3.org/Graphics/SVG/1.1/DTD/svg11.dtd">
<svg version="1.1" id="Layer_1" xmlns="http://www.w3.org/2000/svg" xmlns:xlink="http://www.w3.org/1999/xlink" x="0px" y="0px"
	 viewBox="0 0 120 50" enable-background="new 0 0 120 50" xml:space="preserve">
<g>
	<path fill-rule="evenodd" clip-rule="evenodd" fill="#FFFFFF" d="M74.6,18.5L87.9,17c-0.6-4.9-2.5-8.7-5.9-11.6
		c-3.4-3-8-4.4-13.9-4.4c-5.7,0-10.5,1.3-14.6,3.9c-2.9,1.9-5.2,4.2-7.1,7.1c-0.2-1.8-0.7-3.4-1.5-4.7c-1.1-1.8-2.6-3.3-4.6-4.2
		c-2-0.9-5-1.4-9-1.4H10.1L0,48.2h14.5L18.1,31h6.4l0.5-9.2h-4.9l2.4-11h5.6c3.1,0,4.6,1.4,4.6,4.2c0,1.8-0.8,3.4-2.2,4.8
		c-1.4,1.3-3.3,2-5.6,2L24.6,31c5.1,0,9.1-0.6,11.9-1.8c1.8-0.7,3.4-1.8,4.8-3.1c-0.1,1.1-0.2,2.3-0.2,3.3c0,5.9,1.8,10.7,5.3,14.3
		c3.6,3.6,8.7,5.4,15.4,5.4c6.4,0,11.6-1.6,15.7-4.9c4-3.3,6.7-7.4,8.1-12.2l-13.4-2.1c-1.1,2.9-2.5,5.1-4,6.4
		c-1.5,1.4-3.4,2.1-5.6,2.1c-2.4,0-4.2-0.8-5.4-2.3c-1.3-1.6-1.9-3.5-1.9-5.8c0-3,0.6-6.2,1.9-9.4c1.2-3.2,2.8-5.6,4.8-7.1
		c2-1.6,4.1-2.3,6.2-2.3c1.6,0,3.1,0.5,4.5,1.6c1.4,1.1,2,2.8,2,5.1V18.5z"/>
	<path opacity="0.8" fill-rule="evenodd" clip-rule="evenodd" fill="#FFFFFF" d="M120,1.3h-11.2l-29.7,28L79,30l8.2,1.3l2.9-1.3
		l15.6-14.7l0.2,0.1L102.7,30H90.1l-2.9,1.3c-0.7,2.2-1.6,4.3-2.8,6.3L83,40h17.5l-1.9,8.7h11.1l1.9-8.7h5.9l2.2-10h-6.1L120,1.3z"
		/>
</g>
</svg>
